.
..............................Site Info...........................

 -   http://www.scenetime.com  *_*    

Scenetime .Always on time . friendly online private torrent community ..

     We care to share . Join us on  http://www.scenetime.com 

    Be the first to get new release at  http://www.scenetime.com

        Seed back for speed


...................................NFO:.................................................
 
  
  
                                    
                           
                                    
                              
                               
  
          
   T    E    A    M   
          
  
  
                                     
                                               
                        
                                               
                                            
                                          
                                       
                                                
                                                



 XVID TITLE   
  Rozsaszin.Sajt.2009.Hun.DVDRip.Xvid-viner

Hungarian.: Rozsaszin Sajt



 INFO LINK 

Hun..: http://www.premierfilm.hu/film010110277746.html
iMDb.: http://www.imdb.com/title/tt0153140/



 CUSTOM MEDIA INFO 

Format                           : AVI
Format/Info                      : Audio Video Interleave
File size                        : 700 MiB
Duration                         : 1h 31mn
Overall bit rate                 : 1 064 Kbps



 VIDEO INFO 



Format                           : MPEG-4 Visual
Format profile                   : AdvancedSimple@L5
Format settings, BVOP            : Yes
Format settings, QPel            : No
Format settings, GMC             : No warppoints
Format settings, Matrix          : Default (MPEG)
Muxing mode                      : Packed bitstream
Codec ID                         : XVID
Codec ID/Hint                    : XviD
Duration                         : 1h 31mn
Bit rate                         : 927 Kbps
Width                            : 608 pixels
Height                           : 336 pixels
Display aspect ratio             : 16/9
Frame rate                       : 25.000 fps
Resolution                       : 24 bits
Colorimetry                      : 4:2:0
Scan type                        : Progressive
Bits/(Pixel*Frame)               : 0.181
Stream size                      : 609 MiB (87%)
Writing library                  : XviD 1.2.0.dev47 (UTC 2006-11-01)




 AUDIO INFO 


Format                           : MPEG Audio
Format/Info                      : Layer 3
Codec ID                         : 55
Duration                         : 1h 31mn
Bit rate mode                    : Constant
Bit rate                         : 128 Kbps
Channel(s)                       : 2 channels
Channel positions                : L R
Sampling rate                    : 48.0 KHz
Stream size                      : 84.2 MiB (12%)
Alignment                        : Aligned on interleaves
Interleave, duration             : 40 ms (1.00 video frame)
Interleave, preload duration     : 504 ms




 NOTES 
 

NFO+Sample!
Kodolas 2 menetben (2 pass settings)
Source: Retail DVD9
Make Ready: viner team
Respect to Majomparade's Room
Enjoy!



   

      viner               coci33               DaRoli               SlipKnot